OpenSim_Sub02_CSStiffKnee_RCS.mot
version=1
nRows=40
nColumns=11
inDegrees=no
endheader
time	Top_Thigh	Med_Thigh	Bot_Thigh	Top_Shank	2nd_Top_Shank	2nd_Bot_Shank	Bot_Shank	BNOx	BNOy	BNOZ
34.45000000	1320.00033217	1281.00785243	1200.00868173	1120.03987369	1217.01208091	1004.00647534	1005.93475644	26.74248047	-77.64183607	149.67128031
34.46000000	1319.94762482	1280.89233875	1199.88570539	1119.61647217	1216.91732210	1003.86106600	1006.47249927	25.19759284	-77.41750027	147.44647735
34.47000000	1319.80143186	1280.70861121	1199.69628525	1119.14110802	1216.86988522	1003.55676407	1006.77419093	24.24070773	-77.18036324	145.40702665
34.48000000	1319.58807588	1280.47902228	1199.46262079	1118.61733967	1216.85234971	1003.12552431	1006.86993554	23.80762594	-76.93119701	143.53344441
34.49000000	1319.33390178	1280.22593376	1199.20691961	1118.04869322	1216.84726967	1002.59929576	1006.78985049	23.83378762	-76.67077426	141.80613051
34.50000000	1319.06525450	1279.97170749	1198.95138936	1117.43869477	1216.83719922	1002.01002748	1006.56405321	24.25463292	-76.39986768	140.20548481
34.51000000	1318.80847896	1279.73870527	1198.71823764	1116.79087041	1216.80469245	1001.38966850	1006.22266109	25.00560197	-76.11924997	138.71190721
34.52000000	1318.58992008	1279.54928892	1198.52967210	1116.10874625	1216.73230346	1000.77016788	1005.79579155	26.02213494	-75.82969380	137.30579756
34.53000000	1318.43592278	1279.42582027	1198.40790035	1115.39584838	1216.60258636	1000.18347466	1005.31356199	27.23967195	-75.53197187	135.96755576
34.54000000	1318.37283200	1279.39066112	1198.37513001	1114.65570290	1216.39809526	999.66153789	1004.80608983	28.59365317	-75.22685687	134.67758167
34.55000000	1318.42699265	1279.46617330	1198.45356872	1113.89183591	1216.10138424	999.23630662	1004.30349247	30.01951873	-74.91512149	133.41627518
34.56000000	1318.62474965	1279.67471863	1198.66542410	1113.10777350	1215.69500743	998.93972989	1003.83588732	31.45270877	-74.59753841	132.16403616
34.57000000	1318.99244794	1280.03865892	1199.03290377	1112.30704178	1215.16151892	998.80375674	1003.43339179	32.82866346	-74.27488032	130.90126449
34.58000000	1319.55643244	1280.58035599	1199.57821535	1111.49316685	1214.48347281	998.86033624	1003.12612329	34.08282292	-73.94791992	129.60836005
34.59000000	1320.34072065	1281.32018957	1200.32158286	1110.66897851	1213.64397235	999.13985964	1002.94302398	35.15218685	-73.61719900	128.26614460
34.60000000	1321.27885204	1282.20148587	1201.20611693	1109.81023833	1212.64746901	999.61215974	1002.86734851	36.03438189	-73.27428361	126.87184087
34.61000000	1322.18683184	1283.06747585	1202.07475520	1108.85754533	1211.52614631	1000.16840172	1002.82300184	36.80579124	-72.89907999	125.44397701
34.62000000	1322.87281032	1283.75470091	1202.76374059	1107.74914851	1210.31404115	1000.69449328	1002.72992245	37.54806155	-72.47071514	124.00250507
34.63000000	1323.14493770	1284.09970248	1203.10931602	1106.42329688	1209.04519045	1001.07634210	1002.50804886	38.34283947	-71.96831605	122.56737706
34.64000000	1322.81136423	1283.93902196	1202.94772441	1104.81823948	1207.75363110	1001.19985589	1002.07731957	39.27177163	-71.37100969	121.15854503
34.65000000	1321.68024015	1283.10920078	1202.11520869	1102.87222531	1206.47340002	1000.95094233	1001.35767308	40.41650469	-70.65792308	119.79596100
34.66000000	1319.55971571	1281.44678035	1200.44801175	1100.52350340	1205.23853411	1000.21550912	1000.26904789	41.85868527	-69.80818319	118.49957701
34.67000000	1316.29338182	1278.82090377	1197.81421739	1097.72825672	1204.08083172	998.90010243	998.74681009	43.66684066	-68.80486029	117.28566349
34.68000000	1311.98675811	1275.34166096	1194.31723315	1094.57521144	1203.01554677	997.06379963	996.84034519	45.81253769	-67.66016775	116.14328142
34.69000000	1306.86276146	1271.22713492	1190.16593942	1091.21249999	1202.05051794	994.83404305	994.65014253	48.22388525	-66.39938100	115.04929647
34.70000000	1301.14486250	1266.69591804	1185.56971408	1087.78853500	1201.19354895	992.33859749	992.27693252	50.82878727	-65.04783710	113.98051678
34.71000000	1295.05653184	1261.96660272	1180.73793504	1084.45172911	1200.45244349	989.70522775	989.82144557	53.55514764	-63.63087308	112.91375047
34.72000000	1288.82124012	1257.25778135	1175.87998018	1081.35049496	1199.83500526	987.06169861	987.38441208	56.33087027	-62.17382599	111.82580568
34.73000000	1282.66245797	1252.78804634	1171.20522739	1078.63324519	1199.34903797	984.53577489	985.06656247	59.08385907	-60.70203287	110.69349055
34.74000000	1276.80365602	1248.77599008	1166.92305457	1076.44839244	1199.00234532	982.25522138	982.96862715	61.74201794	-59.24083077	109.49361321
34.75000000	1271.46830489	1245.44020497	1163.24283961	1074.94434935	1198.80273101	980.34780288	981.19133651	64.23325081	-57.81555673	108.20298178
34.76000000	1266.87987521	1242.99928340	1160.37396041	1074.26952854	1198.75799875	978.94128418	979.83542097	66.48546156	-56.45154779	106.79840442
34.77000000	1263.26183761	1241.67181777	1158.52579484	1074.57234268	1198.87595224	978.16343009	979.00161093	68.42655411	-55.17414099	105.25668924
34.78000000	1260.83766271	1241.67640049	1157.90772082	1076.00120438	1199.16439519	978.14200540	978.79063681	69.98443237	-54.00867339	103.55464439
34.79000000	1259.83082115	1243.23162394	1158.72911623	1078.70452629	1199.63113129	979.00477492	979.30322900	71.08700024	-52.98048202	101.66907799
34.80000000	1260.45754481	1246.54696774	1161.19136265	1082.82389185	1200.28338948	980.87460007	980.63613985	71.66691981	-52.11484475	99.57994113
34.81000000	1262.65265908	1251.47765194	1165.18498510	1088.23539902	1201.10605490	983.68372399	982.73147401	71.84182743	-51.43473897	97.38936656
34.82000000	1265.98543244	1257.41870093	1170.19669497	1094.47027081	1202.05498724	987.11676989	985.33044335	71.96964757	-50.96015364	95.35820540
34.83000000	1270.00070257	1263.73438343	1175.68621606	1101.03668161	1203.08410640	990.84181215	988.16083373	72.42436352	-50.71087801	93.75791617
34.84000000	1274.24330713	1269.78896814	1181.11327220	1107.44280583	1204.14733226	994.52692511	990.95043101	73.57995863	-50.70670134	92.85995740
